<svg version="1.1" id="Layer_1" xmlns="http://www.w3.org/2000/svg" xmlns:xlink="http://www.w3.org/1999/xlink" x="0px" y="0px"
	 width="100%" viewBox="0 0 600 146" enable-background="new 0 0 600 146" xml:space="preserve">
<path fill="#FFFFFF" opacity="1.000000" stroke="none" 
	d="
M146.000000,1.000000 
	C297.604248,1.000000 449.208496,1.000000 600.906372,1.000000 
	C600.906372,49.584068 600.906372,98.168373 600.906372,147.000000 
	C449.644745,147.000000 298.289337,147.000000 146.468048,146.531342 
	C146.001419,97.708458 146.000717,49.354229 146.000000,1.000000 
M413.058350,67.409111 
	C418.426208,59.511925 421.778442,51.368542 420.171936,41.256123 
	C418.074768,28.055138 411.401062,19.038355 399.294098,13.758842 
	C385.450073,7.721857 371.260681,11.492275 361.698883,21.028898 
	C354.043060,28.664598 350.568054,38.165817 351.869995,49.471638 
	C353.381439,62.596214 361.267639,73.475594 374.138824,77.955505 
	C388.994751,83.126205 401.958588,79.729294 413.058350,67.409111 
M266.000214,60.513298 
	C260.769562,45.924725 255.637634,31.299158 250.200760,16.787842 
	C249.394073,14.634698 247.148926,13.020490 245.569275,11.156962 
	C244.037354,12.851304 241.869003,14.295135 241.086060,16.284277 
	C238.046936,24.005363 235.445816,31.898960 232.686264,39.729969 
	C228.701157,51.038864 224.590591,62.307022 220.880280,73.705429 
	C220.338638,75.369400 221.714371,77.657478 222.202911,79.656769 
	C224.047668,79.022316 226.215118,78.786041 227.638901,77.632141 
	C228.860184,76.642349 229.347473,74.646141 229.951202,73.017822 
	C230.948090,70.329071 231.014679,66.566437 232.898193,65.146706 
	C234.672714,63.809147 238.287476,64.941162 241.091858,64.910950 
	C241.505341,64.906494 241.909073,64.294502 242.326172,64.282928 
	C246.968719,64.154167 251.619568,63.934837 256.251495,64.131752 
	C257.206299,64.172333 258.445251,65.668266 258.944244,66.769379 
	C260.457245,70.108093 261.295502,73.809120 263.164246,76.905731 
	C264.069702,78.406151 266.689514,78.872009 268.533142,79.806259 
	C269.274628,77.667892 270.983673,75.311073 270.560272,73.435722 
	C269.620331,69.272644 267.611328,65.350929 266.000214,60.513298 
M333.484619,33.016167 
	C331.817017,35.583767 330.149384,38.151363 327.999969,41.460773 
	C327.999969,32.430420 327.786163,24.431524 328.104858,16.453901 
	C328.232910,13.248224 326.680756,11.430807 324.268188,11.278571 
	C322.847168,11.188907 320.930328,13.289733 319.878906,14.840846 
	C319.067596,16.037678 319.038239,17.911501 319.033417,19.485474 
	C318.980194,36.799030 318.999603,54.112808 319.000824,71.426529 
	C319.000916,72.591812 318.767456,73.825241 319.068268,74.908821 
	C319.796448,77.532028 320.638123,80.347481 324.243286,79.966423 
	C327.733154,79.597549 328.059204,77.048523 328.027832,74.167595 
	C327.945435,66.604111 328.000000,59.039127 328.000000,49.948223 
	C333.894501,59.301731 338.946045,67.402916 344.086884,75.447037 
	C347.892090,81.401237 349.597778,81.461723 354.253448,75.645599 
	C348.947632,67.403114 343.737213,58.909637 338.084351,50.721561 
	C335.788391,47.395828 335.595154,44.847870 337.863983,41.507099 
	C342.829102,34.196098 347.381622,26.605455 352.316620,19.273062 
	C354.037231,16.716629 354.429688,14.300865 351.938202,12.603106 
	C349.430786,10.894482 346.804047,11.850980 345.159393,14.459314 
	C341.391876,20.434420 337.720978,26.470442 333.484619,33.016167 
M301.006409,12.016714 
	C293.137634,9.971868 286.602539,11.097397 280.584412,17.585936 
	C274.552063,24.089764 273.417389,38.005123 283.846924,43.951771 
	C288.970337,46.872997 294.700165,48.895786 299.375183,52.374050 
	C302.018219,54.340511 304.606628,58.498459 304.477051,61.552921 
	C304.303680,65.638618 302.583191,70.068161 296.781708,71.204430 
	C290.759521,72.383934 288.313782,71.800087 283.910309,66.231995 
	C282.848724,64.889641 280.090302,63.597660 278.762695,64.078491 
	C277.036316,64.703728 275.523499,66.294716 276.657654,69.560318 
	C279.910095,78.925331 291.721191,81.893951 299.561157,79.125137 
	C308.042419,76.129829 312.632233,69.743454 312.792877,61.200775 
	C312.946075,53.054810 308.453949,46.928497 300.852722,43.349777 
	C296.632233,41.362732 292.092163,39.684525 288.513641,36.839020 
	C286.271881,35.056446 284.317993,31.312269 284.432800,28.539230 
	C284.606567,24.340950 287.287781,20.877468 292.147705,19.964722 
	C296.783356,19.094095 300.295074,20.080999 303.241333,24.164566 
	C304.085449,25.334492 307.302368,24.792450 309.431274,25.035389 
	C309.504333,23.066584 310.406830,20.458223 309.481995,19.258801 
	C307.396912,16.554590 304.407623,14.547543 301.006409,12.016714 
M197.500488,80.000000 
	C201.328293,79.999657 205.172623,80.215210 208.978210,79.924332 
	C211.587326,79.724892 214.242996,79.012222 214.020782,75.314728 
	C213.813583,71.866982 211.828857,70.930321 208.728928,70.973145 
	C202.283554,71.062180 195.836090,71.000046 189.000000,71.000046 
	C189.000000,68.991386 189.000000,67.371742 189.000000,65.752106 
	C189.000000,49.442284 188.890289,33.131138 189.087128,16.823690 
	C189.129456,13.316767 187.810669,11.163525 184.651794,11.147567 
	C181.195831,11.130110 180.962479,14.071609 180.972717,16.919109 
	C181.029572,32.729446 180.999985,48.540092 181.000000,64.350632 
	C181.000000,80.000000 181.000015,80.000000 197.500488,80.000000 
M225.403763,135.936081 
	C228.523376,138.083832 229.972427,137.058060 229.992813,133.477081 
	C230.020096,128.683380 229.999573,123.889381 229.999573,119.337585 
	C234.966278,118.036758 237.422165,119.980858 239.110580,124.158409 
	C240.666046,128.007004 242.807983,131.677063 245.147568,135.115524 
	C245.873749,136.182785 248.090073,136.236145 249.624191,136.753693 
	C249.795349,135.366623 250.548569,133.699280 250.038605,132.640167 
	C247.609650,127.595680 244.837250,122.716560 242.178131,117.761963 
	C249.836838,112.365868 251.349350,103.658211 246.113434,96.419052 
	C242.277924,91.116074 236.861038,92.021767 231.592941,92.005318 
	C224.929794,91.984512 224.051529,92.816360 224.015137,99.620453 
	C223.958115,110.277672 223.972809,120.935577 224.037018,131.592712 
	C224.044418,132.822113 224.560654,134.048431 225.403763,135.936081 
M291.000458,107.457047 
	C288.089203,115.420837 285.012848,123.331367 282.410828,131.394943 
	C281.911469,132.942535 283.276520,135.091766 283.781403,136.963425 
	C285.185120,135.849747 287.646851,134.874374 287.813538,133.598999 
	C288.634186,127.320908 292.412750,126.221054 297.707672,126.979950 
	C298.686707,127.120262 299.723663,127.130890 300.698792,126.977806 
	C305.427826,126.235397 308.402405,127.494324 309.209290,132.857925 
	C309.435150,134.359268 312.429382,136.867188 313.452209,136.562027 
	C316.677185,135.599915 315.131012,132.994736 314.347382,130.773590 
	C310.192627,118.997078 306.148102,107.181427 301.936310,95.425591 
	C301.473358,94.133522 299.740112,92.039032 299.359070,92.193909 
	C297.752014,92.847099 295.816193,93.920937 295.132416,95.373619 
	C293.437561,98.974274 292.363281,102.867050 291.000458,107.457047 
M194.622040,135.115463 
	C202.789902,138.086853 210.776871,138.857880 217.819000,132.520676 
	C218.873749,131.571503 218.991562,129.581131 219.542801,128.072433 
	C217.805557,128.136948 215.663162,127.565384 214.398071,128.371170 
	C207.203262,132.953781 200.241760,132.665344 193.493774,127.799065 
	C183.537201,120.618904 184.938629,104.410500 195.574188,99.110535 
	C203.486374,95.167694 210.528046,97.046638 217.045120,102.121292 
	C220.711426,98.745949 220.945267,97.557106 217.970459,95.512810 
	C205.223221,86.752884 189.427567,91.272530 183.318420,103.939705 
	C177.379852,116.253204 181.056458,127.303139 194.622040,135.115463 
M256.000000,110.501839 
	C256.000031,117.997078 256.100281,125.494316 255.951447,132.986603 
	C255.890778,136.039703 257.006897,137.159760 260.036774,137.044189 
	C264.527374,136.872925 269.038910,137.170059 273.521973,136.918945 
	C275.399384,136.813797 277.226776,135.815308 279.803436,134.990372 
	C274.555176,127.946121 267.657837,132.710312 262.209656,130.517960 
	C262.209656,126.176941 262.209656,121.772957 262.209656,116.999992 
	C266.033234,116.999992 269.693848,117.301605 273.268066,116.876587 
	C275.140167,116.653976 276.860626,115.156242 278.649567,114.234367 
	C276.872833,113.156334 275.187256,111.397987 273.299927,111.144981 
	C269.618591,110.651482 265.824371,111.000267 262.350098,111.000267 
	C262.350098,105.889282 262.350098,101.482872 262.350098,96.999847 
	C266.859192,96.999847 271.031250,97.179565 275.170624,96.891014 
	C276.422516,96.803741 277.583984,95.419151 278.786865,94.628792 
	C277.533417,93.752548 276.318695,92.193977 275.019684,92.120239 
	C269.872894,91.828049 264.682922,91.775894 259.548401,92.160973 
	C258.289154,92.255417 256.274597,94.261360 256.162689,95.526138 
	C255.753204,100.153625 256.000244,104.839211 256.000000,110.501839 
M398.000000,113.500381 
	C398.000031,119.650917 398.061584,125.802315 397.976318,131.951660 
	C397.927307,135.488052 399.483490,137.096909 403.033478,137.021698 
	C407.353577,136.930161 411.692383,137.211609 415.991791,136.899673 
	C417.807220,136.767975 419.542633,135.533524 421.901642,134.557312 
	C416.351929,128.075134 409.488953,132.853531 404.300903,130.489883 
	C404.300903,125.976318 404.300903,121.576683 404.300903,117.542419 
	C409.876648,115.321457 416.634583,119.934837 421.056793,114.343704 
	C421.039307,113.589516 421.021820,112.835335 421.004303,112.081146 
	C415.347900,111.536926 409.691498,110.992714 404.351440,110.478935 
	C404.351440,105.873734 404.351440,101.473343 404.351440,96.999390 
	C409.020325,96.999390 413.347443,97.152527 417.649536,96.892097 
	C418.729706,96.826698 419.729492,95.434196 420.766235,94.651604 
	C419.699768,93.767906 418.672485,92.183266 417.560120,92.121147 
	C412.588684,91.843529 407.582550,92.197319 402.609558,91.933685 
	C399.039795,91.744438 397.999542,93.469170 398.000275,96.542694 
	C398.001526,101.862099 398.000214,107.181496 398.000000,113.500381 
M381.505219,112.996506 
	C380.017731,117.328484 378.530273,121.660454 376.789856,126.729027 
	C372.909271,115.324226 369.447327,104.857620 365.683319,94.500763 
	C365.268158,93.358368 363.124603,92.844093 361.782654,92.038506 
	C361.202759,93.437088 359.798920,95.120552 360.168915,96.190697 
	C364.404938,108.441658 368.837341,120.627159 373.431488,132.748978 
	C374.054382,134.392487 375.848297,135.592194 377.100006,136.997391 
	C378.333221,135.513504 380.098480,134.221512 380.714050,132.514832 
	C384.949463,120.772385 389.016724,108.967033 392.923737,97.111290 
	C393.401245,95.662178 393.142761,92.747742 392.298279,92.312927 
	C389.670197,90.959709 388.067322,92.901436 387.282959,95.344467 
	C385.470978,100.988548 383.731781,106.655991 381.505219,112.996506 
M331.495819,136.942978 
	C335.405548,137.070984 336.040253,134.631500 336.023438,131.427002 
	C335.963501,120.010231 336.000000,108.592964 336.000000,97.215843 
	C346.957794,96.628387 346.957794,96.628387 346.444275,92.000397 
	C338.168121,92.000397 329.862122,91.901527 321.564087,92.114059 
	C320.407837,92.143677 319.290802,93.705917 318.155609,94.558685 
	C319.345337,95.372383 320.460266,96.706146 321.740509,96.890167 
	C324.307526,97.259148 326.964844,96.999771 330.000000,96.999771 
	C330.000000,108.621590 329.962830,119.888649 330.039398,131.154922 
	C330.051117,132.879028 330.588287,134.599548 331.495819,136.942978 
M351.781464,92.788239 
	C351.530182,106.854340 351.231049,120.920258 351.177002,134.987122 
	C351.174438,135.651138 353.436096,136.950653 354.485535,136.806412 
	C355.435516,136.675873 356.878601,134.983063 356.891357,133.963913 
	C357.054230,120.967270 357.113373,107.965866 356.883575,94.971245 
	C356.845795,92.834808 355.887878,89.742485 351.781464,92.788239 
z"/>
<path fill="#C6CACC" opacity="1.000000" stroke="none" 
	d="
M145.531342,1.000000 
	C146.000717,49.354229 146.001419,97.708458 146.001068,146.531342 
	C97.715195,147.000000 49.430389,147.000000 1.072793,147.000000 
	C1.072793,98.430817 1.072793,49.861496 1.072793,1.000000 
	C49.020500,1.000000 97.041588,1.000000 145.531342,1.000000 
M57.993401,28.024942 
	C57.993401,24.458897 57.993401,20.892853 57.993401,17.386566 
	C54.227386,17.386566 51.333954,17.386566 48.333927,17.386566 
	C48.333927,21.669647 48.333927,25.563326 48.333927,29.836405 
	C50.125015,29.836405 51.582561,29.836405 53.004025,30.394878 
	C52.987755,30.580715 52.971481,30.766550 52.067799,30.966261 
	C50.737873,30.981260 49.391632,30.866594 48.080566,31.031525 
	C36.318928,32.511147 27.263086,35.513489 26.066107,50.493755 
	C25.038292,63.356922 24.516239,76.373268 25.263468,89.235153 
	C26.080402,103.296951 34.512695,110.873138 47.589550,110.995857 
	C48.013020,111.013710 48.436485,111.031563 48.917278,111.976303 
	C48.917278,116.885742 48.917278,121.795189 48.917278,126.715813 
	C66.685623,126.715813 83.459473,126.715813 100.548882,126.715813 
	C100.238884,124.042587 99.964119,121.673164 99.642708,118.901558 
	C87.789268,118.901558 76.322433,118.904510 64.855606,118.900452 
	C57.935711,118.898003 57.935711,118.893105 58.584457,112.000832 
	C58.584457,112.000832 59.046314,111.978104 59.977673,111.995499 
	C73.715538,111.666954 87.456795,111.440323 101.190376,110.983093 
	C116.999092,110.456772 121.658455,99.411415 119.112007,85.398468 
	C116.192787,85.398468 113.295273,85.398468 109.999786,85.398468 
	C109.999786,87.594025 110.004669,89.396667 109.998901,91.199272 
	C109.978828,97.479599 107.859055,100.283890 101.820816,101.892616 
	C100.239586,102.313904 98.609879,102.553223 97.013382,102.145821 
	C97.927231,100.460640 98.721512,98.695869 99.779350,97.106529 
	C102.110519,93.604088 105.699585,90.500931 106.756027,86.676964 
	C109.134216,78.068726 109.745636,69.140701 107.375320,60.228836 
	C107.165382,59.439510 109.103165,58.078949 110.923073,56.998692 
	C113.582169,56.273941 117.670280,56.356297 118.623718,54.668190 
	C121.155785,50.185074 116.891014,37.428341 111.956123,35.241985 
	C106.813828,32.963741 100.993523,31.416286 95.391075,31.139444 
	C82.985817,30.526443 70.531319,30.910025 58.027710,30.242826 
	C57.994591,29.809210 57.961472,29.375595 57.993401,28.024942 
z"/>
<path fill="#000000" opacity="1.000000" stroke="none" 
	d="
M412.815704,67.680847 
	C401.958588,79.729294 388.994751,83.126205 374.138824,77.955505 
	C361.267639,73.475594 353.381439,62.596214 351.869995,49.471638 
	C350.568054,38.165817 354.043060,28.664598 361.698883,21.028898 
	C371.260681,11.492275 385.450073,7.721857 399.294098,13.758842 
	C411.401062,19.038355 418.074768,28.055138 420.171936,41.256123 
	C421.778442,51.368542 418.426208,59.511925 412.815704,67.680847 
M406.603485,29.081047 
	C400.124237,22.005892 392.231689,18.623919 382.576935,20.007496 
	C368.715088,21.993977 362.199371,30.429892 360.136475,41.759590 
	C358.325623,51.704903 362.128876,60.402878 370.072754,66.335960 
	C378.234009,72.431396 387.495178,73.678070 397.281982,69.313507 
	C410.202545,63.551403 417.832397,44.519054 406.603485,29.081047 
z"/>
<path fill="#000000" opacity="1.000000" stroke="none" 
	d="
M266.019196,60.922054 
	C267.611328,65.350929 269.620331,69.272644 270.560272,73.435722 
	C270.983673,75.311073 269.274628,77.667892 268.533142,79.806259 
	C266.689514,78.872009 264.069702,78.406151 263.164246,76.905731 
	C261.295502,73.809120 260.457245,70.108093 258.944244,66.769379 
	C258.445251,65.668266 257.206299,64.172333 256.251495,64.131752 
	C251.619568,63.934837 246.968719,64.154167 242.326172,64.282928 
	C241.909073,64.294502 241.505341,64.906494 241.091858,64.910950 
	C238.287476,64.941162 234.672714,63.809147 232.898193,65.146706 
	C231.014679,66.566437 230.948090,70.329071 229.951202,73.017822 
	C229.347473,74.646141 228.860184,76.642349 227.638901,77.632141 
	C226.215118,78.786041 224.047668,79.022316 222.202911,79.656769 
	C221.714371,77.657478 220.338638,75.369400 220.880280,73.705429 
	C224.590591,62.307022 228.701157,51.038864 232.686264,39.729969 
	C235.445816,31.898960 238.046936,24.005363 241.086060,16.284277 
	C241.869003,14.295135 244.037354,12.851304 245.569275,11.156956 
	C247.148926,13.020490 249.394073,14.634698 250.200760,16.787842 
	C255.637634,31.299158 260.769562,45.924725 266.019196,60.922054 
M239.037552,45.678524 
	C238.051407,49.013672 237.065247,52.348820 236.083176,55.670155 
	C242.496429,55.670155 248.695694,55.670155 255.415222,55.670155 
	C252.095718,45.874249 248.931152,36.535545 245.606415,26.724241 
	C243.443665,33.197163 241.471817,39.098721 239.037552,45.678524 
z"/>
<path fill="#000000" opacity="1.000000" stroke="none" 
	d="
M333.747742,32.748955 
	C337.720978,26.470442 341.391876,20.434420 345.159393,14.459314 
	C346.804047,11.850980 349.430786,10.894482 351.938202,12.603106 
	C354.429688,14.300865 354.037231,16.716629 352.316620,19.273062 
	C347.381622,26.605455 342.829102,34.196098 337.863983,41.507099 
	C335.595154,44.847870 335.788391,47.395828 338.084351,50.721561 
	C343.737213,58.909637 348.947632,67.403114 354.253448,75.645599 
	C349.597778,81.461723 347.892090,81.401237 344.086884,75.447037 
	C338.946045,67.402916 333.894501,59.301731 328.000000,49.948223 
	C328.000000,59.039127 327.945435,66.604111 328.027832,74.167595 
	C328.059204,77.048523 327.733154,79.597549 324.243286,79.966423 
	C320.638123,80.347481 319.796448,77.532028 319.068268,74.908821 
	C318.767456,73.825241 319.000916,72.591812 319.000824,71.426529 
	C318.999603,54.112808 318.980194,36.799030 319.033417,19.485474 
	C319.038239,17.911501 319.067596,16.037678 319.878906,14.840846 
	C320.930328,13.289733 322.847168,11.188907 324.268188,11.278571 
	C326.680756,11.430807 328.232910,13.248224 328.104858,16.453901 
	C327.786163,24.431524 327.999969,32.430420 327.999969,41.460773 
	C330.149384,38.151363 331.817017,35.583767 333.747742,32.748955 
z"/>
<path fill="#000000" opacity="1.000000" stroke="none" 
	d="
M301.396301,12.136772 
	C304.407623,14.547543 307.396912,16.554590 309.481995,19.258801 
	C310.406830,20.458223 309.504333,23.066584 309.431274,25.035389 
	C307.302368,24.792450 304.085449,25.334492 303.241333,24.164566 
	C300.295074,20.080999 296.783356,19.094095 292.147705,19.964722 
	C287.287781,20.877468 284.606567,24.340950 284.432800,28.539230 
	C284.317993,31.312269 286.271881,35.056446 288.513641,36.839020 
	C292.092163,39.684525 296.632233,41.362732 300.852722,43.349777 
	C308.453949,46.928497 312.946075,53.054810 312.792877,61.200775 
	C312.632233,69.743454 308.042419,76.129829 299.561157,79.125137 
	C291.721191,81.893951 279.910095,78.925331 276.657654,69.560318 
	C275.523499,66.294716 277.036316,64.703728 278.762695,64.078491 
	C280.090302,63.597660 282.848724,64.889641 283.910309,66.231995 
	C288.313782,71.800087 290.759521,72.383934 296.781708,71.204430 
	C302.583191,70.068161 304.303680,65.638618 304.477051,61.552921 
	C304.606628,58.498459 302.018219,54.340511 299.375183,52.374050 
	C294.700165,48.895786 288.970337,46.872997 283.846924,43.951771 
	C273.417389,38.005123 274.552063,24.089764 280.584412,17.585936 
	C286.602539,11.097397 293.137634,9.971868 301.396301,12.136772 
z"/>
<path fill="#000000" opacity="1.000000" stroke="none" 
	d="
M197.005981,80.000000 
	C181.000015,80.000000 181.000000,80.000000 181.000000,64.350632 
	C180.999985,48.540092 181.029572,32.729446 180.972717,16.919109 
	C180.962479,14.071609 181.195831,11.130110 184.651794,11.147567 
	C187.810669,11.163525 189.129456,13.316767 189.087128,16.823690 
	C188.890289,33.131138 189.000000,49.442284 189.000000,65.752106 
	C189.000000,67.371742 189.000000,68.991386 189.000000,71.000046 
	C195.836090,71.000046 202.283554,71.062180 208.728928,70.973145 
	C211.828857,70.930321 213.813583,71.866982 214.020782,75.314728 
	C214.242996,79.012222 211.587326,79.724892 208.978210,79.924332 
	C205.172623,80.215210 201.328293,79.999657 197.005981,80.000000 
z"/>
<path fill="#000000" opacity="1.000000" stroke="none" 
	d="
M225.122375,135.606140 
	C224.560654,134.048431 224.044418,132.822113 224.037018,131.592712 
	C223.972809,120.935577 223.958115,110.277672 224.015137,99.620453 
	C224.051529,92.816360 224.929794,91.984512 231.592941,92.005318 
	C236.861038,92.021767 242.277924,91.116074 246.113434,96.419052 
	C251.349350,103.658211 249.836838,112.365868 242.178131,117.761963 
	C244.837250,122.716560 247.609650,127.595680 250.038605,132.640167 
	C250.548569,133.699280 249.795349,135.366623 249.624176,136.753693 
	C248.090073,136.236145 245.873749,136.182785 245.147568,135.115524 
	C242.807983,131.677063 240.666046,128.007004 239.110580,124.158409 
	C237.422165,119.980858 234.966278,118.036758 229.999573,119.337585 
	C229.999573,123.889381 230.020096,128.683380 229.992813,133.477081 
	C229.972427,137.058060 228.523376,138.083832 225.122375,135.606140 
M242.999939,103.831833 
	C241.904373,98.068634 238.299149,96.279526 230.226624,97.521614 
	C230.226624,102.926979 230.226624,108.336029 230.226624,113.725250 
	C240.498505,114.486191 242.980423,112.696800 242.999939,103.831833 
z"/>
<path fill="#000000" opacity="1.000000" stroke="none" 
	d="
M291.020081,107.049759 
	C292.363281,102.867050 293.437561,98.974274 295.132416,95.373619 
	C295.816193,93.920937 297.752014,92.847099 299.359070,92.193909 
	C299.740112,92.039032 301.473358,94.133522 301.936310,95.425591 
	C306.148102,107.181427 310.192627,118.997078 314.347382,130.773590 
	C315.131012,132.994736 316.677185,135.599915 313.452209,136.562027 
	C312.429382,136.867188 309.435150,134.359268 309.209290,132.857925 
	C308.402405,127.494324 305.427826,126.235397 300.698792,126.977806 
	C299.723663,127.130890 298.686707,127.120262 297.707672,126.979950 
	C292.412750,126.221054 288.634186,127.320908 287.813538,133.598999 
	C287.646851,134.874374 285.185120,135.849747 283.781403,136.963425 
	C283.276520,135.091766 281.911469,132.942535 282.410828,131.394943 
	C285.012848,123.331367 288.089203,115.420837 291.020081,107.049759 
M303.041412,120.998787 
	C303.667633,120.672432 304.872955,120.156914 304.837006,120.046844 
	C302.976227,114.350060 301.010040,108.687706 298.618652,101.756966 
	C296.214661,108.986946 294.256561,114.875931 292.220306,120.999924 
	C295.866364,120.999924 299.007080,120.999924 303.041412,120.998787 
z"/>
<path fill="#000000" opacity="1.000000" stroke="none" 
	d="
M194.230286,135.051239 
	C181.056458,127.303139 177.379852,116.253204 183.318420,103.939705 
	C189.427567,91.272530 205.223221,86.752884 217.970459,95.512810 
	C220.945267,97.557106 220.711426,98.745949 217.045120,102.121292 
	C210.528046,97.046638 203.486374,95.167694 195.574188,99.110535 
	C184.938629,104.410500 183.537201,120.618904 193.493774,127.799065 
	C200.241760,132.665344 207.203262,132.953781 214.398071,128.371170 
	C215.663162,127.565384 217.805557,128.136948 219.542801,128.072433 
	C218.991562,129.581131 218.873749,131.571503 217.819000,132.520676 
	C210.776871,138.857880 202.789902,138.086853 194.230286,135.051239 
z"/>
<path fill="#000000" opacity="1.000000" stroke="none" 
	d="
M256.000000,110.002380 
	C256.000244,104.839211 255.753204,100.153625 256.162689,95.526138 
	C256.274597,94.261360 258.289154,92.255417 259.548401,92.160973 
	C264.682922,91.775894 269.872894,91.828049 275.019684,92.120239 
	C276.318695,92.193977 277.533417,93.752548 278.786865,94.628799 
	C277.583984,95.419151 276.422516,96.803741 275.170624,96.891014 
	C271.031250,97.179565 266.859192,96.999847 262.350098,96.999847 
	C262.350098,101.482872 262.350098,105.889282 262.350098,111.000267 
	C265.824371,111.000267 269.618591,110.651482 273.299927,111.144981 
	C275.187256,111.397987 276.872833,113.156334 278.649567,114.234367 
	C276.860626,115.156242 275.140167,116.653976 273.268066,116.876587 
	C269.693848,117.301605 266.033234,116.999992 262.209656,116.999992 
	C262.209656,121.772957 262.209656,126.176941 262.209656,130.517960 
	C267.657837,132.710312 274.555176,127.946121 279.803436,134.990372 
	C277.226776,135.815308 275.399384,136.813797 273.521973,136.918945 
	C269.038910,137.170059 264.527374,136.872925 260.036774,137.044189 
	C257.006897,137.159760 255.890778,136.039703 255.951447,132.986603 
	C256.100281,125.494316 256.000031,117.997078 256.000000,110.002380 
z"/>
<path fill="#000000" opacity="1.000000" stroke="none" 
	d="
M398.000000,113.000641 
	C398.000214,107.181496 398.001526,101.862099 398.000275,96.542694 
	C397.999542,93.469170 399.039795,91.744438 402.609558,91.933685 
	C407.582550,92.197319 412.588684,91.843529 417.560120,92.121147 
	C418.672485,92.183266 419.699768,93.767906 420.766235,94.651604 
	C419.729492,95.434196 418.729706,96.826698 417.649536,96.892097 
	C413.347443,97.152527 409.020325,96.999390 404.351440,96.999390 
	C404.351440,101.473343 404.351440,105.873734 404.351440,110.478935 
	C409.691498,110.992714 415.347900,111.536926 421.004303,112.081146 
	C421.021820,112.835335 421.039307,113.589516 421.056793,114.343704 
	C416.634583,119.934837 409.876648,115.321457 404.300903,117.542419 
	C404.300903,121.576683 404.300903,125.976318 404.300903,130.489883 
	C409.488953,132.853531 416.351929,128.075134 421.901642,134.557312 
	C419.542633,135.533524 417.807220,136.767975 415.991791,136.899673 
	C411.692383,137.211609 407.353577,136.930161 403.033478,137.021698 
	C399.483490,137.096909 397.927307,135.488052 397.976318,131.951660 
	C398.061584,125.802315 398.000031,119.650917 398.000000,113.000641 
z"/>
<path fill="#000000" opacity="1.000000" stroke="none" 
	d="
M381.734131,112.655228 
	C383.731781,106.655991 385.470978,100.988548 387.282959,95.344467 
	C388.067322,92.901436 389.670197,90.959709 392.298279,92.312927 
	C393.142761,92.747742 393.401245,95.662178 392.923737,97.111290 
	C389.016724,108.967033 384.949463,120.772385 380.714050,132.514832 
	C380.098480,134.221512 378.333221,135.513504 377.100006,136.997391 
	C375.848297,135.592194 374.054382,134.392487 373.431488,132.748978 
	C368.837341,120.627159 364.404938,108.441658 360.168915,96.190697 
	C359.798920,95.120552 361.202759,93.437088 361.782654,92.038506 
	C363.124603,92.844093 365.268158,93.358368 365.683319,94.500763 
	C369.447327,104.857620 372.909271,115.324226 376.789856,126.729027 
	C378.530273,121.660454 380.017731,117.328484 381.734131,112.655228 
z"/>
<path fill="#000000" opacity="1.000000" stroke="none" 
	d="
M331.189148,136.632355 
	C330.588287,134.599548 330.051117,132.879028 330.039398,131.154922 
	C329.962830,119.888649 330.000000,108.621590 330.000000,96.999771 
	C326.964844,96.999771 324.307526,97.259148 321.740509,96.890167 
	C320.460266,96.706146 319.345337,95.372383 318.155609,94.558685 
	C319.290802,93.705917 320.407837,92.143677 321.564087,92.114059 
	C329.862122,91.901527 338.168121,92.000397 346.444275,92.000397 
	C346.957794,96.628387 346.957794,96.628387 336.000000,97.215843 
	C336.000000,108.592964 335.963501,120.010231 336.023438,131.427002 
	C336.040253,134.631500 335.405548,137.070984 331.189148,136.632355 
z"/>
<path fill="#000000" opacity="1.000000" stroke="none" 
	d="
M352.044922,92.462654 
	C355.887878,89.742485 356.845795,92.834808 356.883575,94.971245 
	C357.113373,107.965866 357.054230,120.967270 356.891357,133.963913 
	C356.878601,134.983063 355.435516,136.675873 354.485535,136.806412 
	C353.436096,136.950653 351.174438,135.651138 351.177002,134.987122 
	C351.231049,120.920258 351.530182,106.854340 352.044922,92.462654 
z"/>
<path fill="#C7CBCD" opacity="1.000000" stroke="none" 
	d="
M110.043434,56.983704 
	C109.103165,58.078949 107.165382,59.439510 107.375320,60.228836 
	C109.745636,69.140701 109.134216,78.068726 106.756027,86.676964 
	C105.699585,90.500931 102.110519,93.604088 99.779350,97.106529 
	C98.721512,98.695869 97.927231,100.460640 96.575012,102.550446 
	C83.753021,103.291458 71.369392,103.627846 58.894779,103.761292 
	C58.631527,103.305504 58.402866,103.123543 58.086586,102.544052 
	C58.055363,81.503815 58.055363,60.931980 58.055363,39.548035 
	C54.387482,40.334476 51.748299,40.900356 48.863674,41.518860 
	C48.863674,61.988670 48.863674,81.971642 48.534603,101.971619 
	C47.764954,102.018410 47.324371,102.048195 46.504345,102.062546 
	C44.896576,101.670532 43.556023,101.495422 42.458481,100.884064 
	C36.209705,97.403259 35.348907,91.147308 35.107269,85.026413 
	C34.740192,75.728081 35.057346,66.404083 35.014488,57.091301 
	C34.944942,41.978874 42.039818,39.431660 52.754116,39.174332 
	C66.156792,38.852440 79.588562,39.741631 93.061646,40.434963 
	C97.180298,45.391331 101.245071,50.020756 105.577148,54.954620 
	C106.556854,54.395584 107.798050,53.687336 109.312469,53.209457 
	C109.738274,54.621117 109.890854,55.802410 110.043434,56.983704 
z"/>
<path fill="#FEFEFE" opacity="1.000000" stroke="none" 
	d="
M93.007774,40.108025 
	C79.588562,39.741631 66.156792,38.852440 52.754116,39.174332 
	C42.039818,39.431660 34.944942,41.978874 35.014488,57.091301 
	C35.057346,66.404083 34.740192,75.728081 35.107269,85.026413 
	C35.348907,91.147308 36.209705,97.403259 42.458481,100.884064 
	C43.556023,101.495422 44.896576,101.670532 46.542683,102.502632 
	C46.957253,105.628502 46.954037,108.298859 46.950821,110.969208 
	C34.512695,110.873138 26.080402,103.296951 25.263468,89.235153 
	C24.516239,76.373268 25.038292,63.356922 26.066107,50.493755 
	C27.263086,35.513489 36.318928,32.511147 48.080566,31.031525 
	C49.391632,30.866594 50.737873,30.981260 52.939240,30.985111 
	C55.239422,30.965033 56.668163,30.926100 58.096901,30.887169 
	C70.531319,30.910025 82.985817,30.526443 95.391075,31.139444 
	C100.993523,31.416286 106.813828,32.963741 111.956123,35.241985 
	C116.891014,37.428341 121.155785,50.185074 118.623718,54.668190 
	C117.670280,56.356297 113.582169,56.273941 110.483253,56.991196 
	C109.890854,55.802410 109.738274,54.621117 109.296722,52.777081 
	C109.024658,44.013493 106.444008,40.864025 98.905167,40.055229 
	C96.963608,39.846931 94.974846,40.078518 93.007774,40.108025 
z"/>
<path fill="#FFFFFF" opacity="1.000000" stroke="none" 
	d="
M48.863674,101.954613 
	C48.863674,81.971642 48.863674,61.988670 48.863674,41.518860 
	C51.748299,40.900356 54.387482,40.334476 58.055363,39.548035 
	C58.055363,60.931980 58.055363,81.503815 58.043873,102.991119 
	C58.063076,106.611107 58.093773,109.315620 58.124470,112.020134 
	C57.935711,118.893105 57.935711,118.898003 64.855606,118.900452 
	C76.322433,118.904510 87.789268,118.901558 99.642708,118.901558 
	C99.964119,121.673164 100.238884,124.042587 100.548882,126.715813 
	C83.459473,126.715813 66.685623,126.715813 48.917278,126.715813 
	C48.917278,121.795189 48.917278,116.885742 48.939445,111.058884 
	C48.928970,107.412506 48.896320,104.683563 48.863674,101.954613 
z"/>
<path fill="#FEFFFF" opacity="1.000000" stroke="none" 
	d="
M58.985764,103.964233 
	C71.369392,103.627846 83.753021,103.291458 96.569542,102.915596 
	C98.609879,102.553223 100.239586,102.313904 101.820816,101.892616 
	C107.859055,100.283890 109.978828,97.479599 109.998901,91.199272 
	C110.004669,89.396667 109.999786,87.594025 109.999786,85.398468 
	C113.295273,85.398468 116.192787,85.398468 119.112007,85.398468 
	C121.658455,99.411415 116.999092,110.456772 101.190376,110.983093 
	C87.456795,111.440323 73.715538,111.666954 59.494247,111.544220 
	C59.002472,108.716705 58.994118,106.340469 58.985764,103.964233 
z"/>
<path fill="#FFFFFF" opacity="1.000000" stroke="none" 
	d="
M53.040112,29.836403 
	C51.582561,29.836405 50.125015,29.836405 48.333927,29.836405 
	C48.333927,25.563326 48.333927,21.669647 48.333927,17.386566 
	C51.333954,17.386566 54.227386,17.386566 57.993401,17.386566 
	C57.993401,20.892853 57.993401,24.458897 57.587242,28.498968 
	C55.800758,29.260798 54.420433,29.548601 53.040112,29.836403 
z"/>
<path fill="#D5D8DA" opacity="1.000000" stroke="none" 
	d="
M48.534603,101.971619 
	C48.896320,104.683563 48.928970,107.412506 48.910786,110.595444 
	C48.436485,111.031563 48.013020,111.013710 47.270187,110.982529 
	C46.954037,108.298859 46.957253,105.628502 46.922131,102.518066 
	C47.324371,102.048195 47.764954,102.018410 48.534603,101.971619 
z"/>
<path fill="#E4E6E7" opacity="1.000000" stroke="none" 
	d="
M53.022068,30.115641 
	C54.420433,29.548601 55.800758,29.260798 57.554718,28.957485 
	C57.961472,29.375595 57.994591,29.809210 58.062305,30.564999 
	C56.668163,30.926100 55.239422,30.965033 53.382950,30.978172 
	C52.971481,30.766550 52.987755,30.580715 53.022068,30.115641 
z"/>
<path fill="#CDD2D3" opacity="1.000000" stroke="none" 
	d="
M58.894775,103.761284 
	C58.994118,106.340469 59.002472,108.716705 59.028572,111.535522 
	C59.046314,111.978104 58.584457,112.000832 58.354462,112.010483 
	C58.093773,109.315620 58.063076,106.611107 58.075096,103.459518 
	C58.402866,103.123543 58.631527,103.305504 58.894775,103.761284 
z"/>
<path fill="#FFFFFF" opacity="1.000000" stroke="none" 
	d="
M406.789398,29.402687 
	C417.832397,44.519054 410.202545,63.551403 397.281982,69.313507 
	C387.495178,73.678070 378.234009,72.431396 370.072754,66.335960 
	C362.128876,60.402878 358.325623,51.704903 360.136475,41.759590 
	C362.199371,30.429892 368.715088,21.993977 382.576935,20.007496 
	C392.231689,18.623919 400.124237,22.005892 406.789398,29.402687 
z"/>
<path fill="#FFFFFF" opacity="1.000000" stroke="none" 
	d="
M239.268753,45.339401 
	C241.471817,39.098721 243.443665,33.197163 245.606415,26.724241 
	C248.931152,36.535545 252.095718,45.874249 255.415222,55.670155 
	C248.695694,55.670155 242.496429,55.670155 236.083176,55.670155 
	C237.065247,52.348820 238.051407,49.013672 239.268753,45.339401 
z"/>
<path fill="#FFFFFF" opacity="1.000000" stroke="none" 
	d="
M242.999969,104.264015 
	C242.980423,112.696800 240.498505,114.486191 230.226624,113.725250 
	C230.226624,108.336029 230.226624,102.926979 230.226624,97.521614 
	C238.299149,96.279526 241.904373,98.068634 242.999969,104.264015 
z"/>
<path fill="#FFFFFF" opacity="1.000000" stroke="none" 
	d="
M302.594604,120.999359 
	C299.007080,120.999924 295.866364,120.999924 292.220306,120.999924 
	C294.256561,114.875931 296.214661,108.986946 298.618652,101.756966 
	C301.010040,108.687706 302.976227,114.350060 304.837006,120.046844 
	C304.872955,120.156914 303.667633,120.672432 302.594604,120.999359 
z"/>
<path fill="#C6CACC" opacity="1.000000" stroke="none" 
	d="
M93.061646,40.434967 
	C94.974846,40.078518 96.963608,39.846931 98.905167,40.055229 
	C106.444008,40.864025 109.024658,44.013493 109.023499,52.546715 
	C107.798050,53.687336 106.556854,54.395584 105.577148,54.954620 
	C101.245071,50.020756 97.180298,45.391331 93.061646,40.434967 
z"/>
</svg>